<svg width="637" height="155" viewBox="0 0 637 155" fill="none" xmlns="http://www.w3.org/2000/svg">
<path d="M73.6921 0.208118C81.4526 -0.309382 89.2476 0.139113 96.8971 1.54361C107.415 3.42561 126.387 8.54861 132.669 18.0286C135.851 22.8916 136.951 28.8271 135.723 34.5076C134.469 40.2281 130.865 45.1566 125.793 48.0851C113.096 55.5331 103.899 46.4126 92.5621 43.1976C82.4981 40.5116 70.0161 41.4286 61.0956 47.0071C34.6196 63.5641 42.3506 107.771 73.5336 113.841C84.5981 115.995 90.8841 115.097 100.301 109.093L100.396 99.9776C96.8611 100.062 91.6491 100.398 88.3601 99.8296C73.4901 97.1721 72.2821 74.0321 84.4241 67.1751C89.0436 64.5661 95.2571 65.0571 100.39 65.1081C103.517 65.1391 106.693 65.1196 109.815 65.1836C116.353 65.3176 122.94 64.6301 129.284 66.5071C149.026 74.5026 141.137 96.8881 142.786 113.845C144.845 135.021 117.927 147.717 100.627 152.277C76.8391 158.547 47.6821 153.995 28.3976 137.717C-25.1219 90.9406 0.937576 6.31712 73.6921 0.208118Z" fill="#4067E3"/>
<path d="M174.73 2.66026C179.488 2.22876 187.568 2.40476 192.529 2.41926L223.232 2.54576C235.266 2.58476 248.293 1.99426 260.044 2.92776C276.153 4.46876 284.697 23.3733 277.403 36.9813C272.496 46.1358 262.876 55.1658 256.111 63.1493C243.142 78.4553 229.735 93.1003 217.047 108.641C229.374 108.814 257.964 106.779 267.838 112.207C272.235 114.625 275.491 118.347 276.885 123.204C278.671 129.426 277.846 137.526 274.562 143.121C271.398 148.511 266.585 151.324 260.725 152.923C260.131 153.041 259.533 153.136 258.931 153.208C251.546 154.083 230.018 153.391 221.034 153.376L193.549 153.465C187.697 153.485 178.831 153.661 173.253 152.724C168.729 152.001 164.466 150.129 160.873 147.286C155.435 142.904 152.331 136.42 151.775 129.508C151.353 124.215 152.485 118.914 155.03 114.255C158.349 108.09 168.317 98.2583 173.434 92.3393L212.397 46.9118C204.977 46.7953 197.557 46.7873 190.137 46.8878C184.226 46.9643 178.686 47.3023 172.701 46.5203C155.476 44.2688 149.689 24.6788 159.008 11.3608C162.961 5.71226 168.1 3.70426 174.73 2.66026Z" fill="#E2463D"/>
<path d="M465.031 2.64602C465.391 2.62102 465.756 2.60002 466.116 2.58302C475.366 2.23352 486.021 2.58352 495.391 2.51852C517.636 2.36502 535.196 1.05701 552.531 17.5675C563.061 27.5995 569.141 41.4265 569.416 55.9675C569.856 76.6005 559.171 93.768 541.071 103.573C530.016 109.563 518.046 109.185 505.886 109.412L492.326 109.402C492.321 120.026 494.056 132.63 488.506 141.901C478.576 158.482 447.326 155.213 444.421 135.029C443.361 127.662 443.761 119.48 443.736 111.996L443.556 76.8495L443.441 43.5485C443.396 25.527 441.156 5.99302 465.031 2.64602Z" fill="#4067E3"/>
<path fill-rule="evenodd" clip-rule="evenodd" d="M357.98 0.195312C369.455 0.527809 376.095 5.64525 380.935 15.6436C384.865 23.7646 388.411 31.9009 392.131 40.1104L407.796 74.0361C415.126 90.0531 422.821 106.034 430.041 122.097C431.096 124.954 432.261 127.101 432.406 130.223C433.201 147.184 415.506 158.346 400.331 152.923C391.171 149.649 387.431 139.812 384.301 131.104L332.735 131.158C330.68 136.55 328.43 141.872 325.1 146.664C318.4 156.575 301.905 156.33 293.262 149.465C285.2 143.06 282.78 131.977 286.663 122.61C293.079 107.131 300.496 92.0641 307.516 76.8457L325.975 36.8916C329.335 29.5486 332.671 22.1903 336.156 14.9014C340.906 4.97185 347.116 1.27383 357.98 0.195312ZM358.001 65.2598C354.346 73.9231 351.036 82.8149 347.296 91.4863C350.406 91.4388 353.521 91.4211 356.631 91.4326C360.29 91.4311 363.945 91.4512 367.605 91.4932C366.085 87.818 359.456 66.5171 358.001 65.2598Z" fill="#26A863"/>
<path d="M604.841 2.61512C611.916 1.92612 617.871 2.56061 624.081 6.07261C638.131 14.0186 636.326 28.1196 636.336 41.4731L636.326 111.514C636.341 130.196 638.991 148.165 614.871 152.463C601.446 153.563 587.836 150.401 583.786 134.974C582.726 130.936 583.236 123.958 583.196 119.568C583.111 109.24 583.171 98.8706 583.161 88.5306L583.126 47.7651C583.121 27.3731 579.336 8.76012 604.841 2.61512Z" fill="#26A863"/>
</svg>
